<?xml version="1.0" encoding="UTF-8" standalone="no"?>
<!-- Generated by IcoMoon.io -->

<svg
   xmlns:dc="http://purl.org/dc/elements/1.1/"
   xmlns:cc="http://creativecommons.org/ns#"
   xmlns:rdf="http://www.w3.org/1999/02/22-rdf-syntax-ns#"
   xmlns:svg="http://www.w3.org/2000/svg"
   xmlns="http://www.w3.org/2000/svg"
   xmlns:sodipodi="http://sodipodi.sourceforge.net/DTD/sodipodi-0.dtd"
   xmlns:inkscape="http://www.inkscape.org/namespaces/inkscape"
   version="1.1"
   width="32"
   height="32"
   viewBox="0 0 32 32"
   id="svg4545"
   sodipodi:docname="terminal.svg"
   inkscape:version="0.92.1 r">
  <metadata
     id="metadata4551">
    <rdf:RDF>
      <cc:Work
         rdf:about="">
        <dc:format>image/svg+xml</dc:format>
        <dc:type
           rdf:resource="http://purl.org/dc/dcmitype/StillImage" />
      </cc:Work>
    </rdf:RDF>
  </metadata>
  <defs
     id="defs4549" />
  <sodipodi:namedview
     pagecolor="#ffffff"
     bordercolor="#666666"
     borderopacity="1"
     objecttolerance="10"
     gridtolerance="10"
     guidetolerance="10"
     inkscape:pageopacity="0"
     inkscape:pageshadow="2"
     inkscape:window-width="3190"
     inkscape:window-height="1742"
     id="namedview4547"
     showgrid="false"
     inkscape:zoom="45.254834"
     inkscape:cx="4.5927693"
     inkscape:cy="20.848723"
     inkscape:window-x="0"
     inkscape:window-y="48"
     inkscape:window-maximized="0"
     inkscape:current-layer="svg4545" />
  <path
     fill="#444444"
     d="M14.392 17.894h6.432v1.608h-6.432v-1.608zM9.568 19.502l4.824-4.824-4.824-4.824-1.608 1.608 3.216 3.216-3.216 3.216z"
     id="path4543" />
  <path
     style="opacity:1;fill:#ffffff;fill-opacity:0.97647059;stroke-width:0.02203857"
     d="M 8.7724164,18.691977 7.9736088,17.892945 9.5823971,16.28427 11.191185,14.675594 9.5823401,13.066638 7.9734948,11.457681 l 0.793469,-0.79324 0.793469,-0.7932392 2.4076502,2.4076502 2.407649,2.407649 -2.402254,2.402254 -2.402254,2.402255 z"
     id="path4557"
     inkscape:connector-curvature="0" />
  <path
     style="opacity:1;fill:#ffffff;fill-opacity:0.97647059;stroke-width:0.02203857"
     d="m 14.408815,18.697521 v -0.793389 h 3.206612 3.206612 v 0.793389 0.793388 h -3.206612 -3.206612 z"
     id="path4559"
     inkscape:connector-curvature="0" />
  <path
     style="opacity:1;fill:#ffffff;fill-opacity:0.97647059;stroke-width:0.00390625"
     d="M 8.7652192,18.697346 7.9615115,17.893632 9.5689323,16.286214 11.176353,14.678797 9.9019415,13.404381 C 9.0497277,12.552164 8.6301181,12.129965 8.6353424,12.129965 c 0.00519,0 0.4348925,0.427082 1.2812457,1.273438 l 1.2734329,1.273438 -1.608397,1.6084 -1.6083973,1.608402 0.7988302,0.798823 0.7988303,0.798823 2.4023418,-2.40234 2.402342,-2.40234 -1.278317,-1.278322 c -1.138888,-1.138892 -1.27704,-1.278322 -1.266599,-1.278322 0.01039,0 0.155923,0.144205 1.28613,1.274416 l 1.274411,1.274416 -2.411134,2.411132 -2.4111351,2.411132 z"
     id="path4561"
     inkscape:connector-curvature="0" />
</svg>
