<?xml version="1.0" encoding="UTF-8" standalone="no"?>
<!-- Generator: Adobe Illustrator 18.0.0, SVG Export Plug-In . SVG Version: 6.00 Build 0)  -->

<svg
   xmlns:dc="http://purl.org/dc/elements/1.1/"
   xmlns:cc="http://creativecommons.org/ns#"
   xmlns:rdf="http://www.w3.org/1999/02/22-rdf-syntax-ns#"
   xmlns:svg="http://www.w3.org/2000/svg"
   xmlns="http://www.w3.org/2000/svg"
   xmlns:sodipodi="http://sodipodi.sourceforge.net/DTD/sodipodi-0.dtd"
   xmlns:inkscape="http://www.inkscape.org/namespaces/inkscape"
   version="1.1"
   id="Layer_1"
   x="0px"
   y="0px"
   width="38px"
   height="44px"
   viewBox="0 0 38 44"
   enable-background="new 0 0 38 44"
   xml:space="preserve"
   sodipodi:docname="cd-arrow-bottom.svg"
   inkscape:version="0.92.1 r"><metadata
     id="metadata4557"><rdf:RDF><cc:Work
         rdf:about=""><dc:format>image/svg+xml</dc:format><dc:type
           rdf:resource="http://purl.org/dc/dcmitype/StillImage" /></cc:Work></rdf:RDF></metadata><defs
     id="defs4555" /><sodipodi:namedview
     pagecolor="#ffffff"
     bordercolor="#666666"
     borderopacity="1"
     objecttolerance="10"
     gridtolerance="10"
     guidetolerance="10"
     inkscape:pageopacity="0"
     inkscape:pageshadow="2"
     inkscape:window-width="3190"
     inkscape:window-height="1742"
     id="namedview4553"
     showgrid="false"
     inkscape:zoom="33"
     inkscape:cx="19"
     inkscape:cy="22"
     inkscape:window-x="0"
     inkscape:window-y="48"
     inkscape:window-maximized="0"
     inkscape:current-layer="Layer_1" /><g
     id="g4550"><path
       fill-rule="evenodd"
       clip-rule="evenodd"
       fill="#686470"
       d="M37.3,22.2c-0.5-0.3-1.2-0.1-1.4,0.4L19,41.5L2.1,22.6   c-0.3-0.5-0.9-0.6-1.4-0.4c-0.5,0.3-0.7,0.9-0.4,1.3L18,43.4c0.2,0.3,0.6,0.5,1,0.5c0.4,0,0.8-0.2,1-0.5l17.7-19.8   C38,23.1,37.8,22.5,37.3,22.2z"
       id="path4546"
       style="fill:#ffffff;fill-opacity:1;opacity:0.459" /><path
       fill-rule="evenodd"
       clip-rule="evenodd"
       fill="#4B4854"
       d="M18,21.4c0.2,0.3,0.6,0.5,1,0.5c0.4,0,0.8-0.2,1-0.5L37.7,1.6   c0.3-0.5,0.1-1.1-0.4-1.3c-0.5-0.3-1.2-0.1-1.4,0.4L19,19.5L2.1,0.6C1.8,0.1,1.2,0,0.7,0.2C0.2,0.5,0,1.1,0.3,1.6L18,21.4z"
       id="path4548"
       style="fill:#ffffff;fill-opacity:1" /></g></svg>